o upperarm_1
v -0.0579 -0.0652 0.0
v -0.0579 -0.0599 0.0
v -0.057361 -0.0652 -0.007884
v -0.057361 -0.0652 0.007884
v -0.057361 -0.0599 -0.007884
v -0.057361 -0.0599 0.007884
v -0.055753 -0.0652 -0.015621
v -0.055753 -0.0652 0.015621
v -0.055753 -0.0599 -0.015621
v -0.055753 -0.0599 0.015621
v -0.053106 -0.0652 -0.023067
v -0.053106 -0.0652 0.023067
v -0.053106 -0.0599 -0.023067
v -0.053106 -0.0599 0.023067
v -0.049471 -0.0652 -0.030084
v -0.049471 -0.0652 0.030084
v -0.049471 -0.0599 -0.030084
v -0.049471 -0.0599 0.030084
v -0.044914 -0.0652 -0.03654
v -0.044914 -0.0652 0.03654
v -0.044914 -0.0599 -0.03654
v -0.044914 -0.0599 0.03654
v -0.03952 -0.0652 -0.042315
v -0.03952 -0.0652 0.042315
v -0.03952 -0.0599 -0.042315
v -0.03952 -0.0599 0.042315
v -0.03339 -0.0652 -0.047303
v -0.03339 -0.0652 0.047302
v -0.03339 -0.0599 -0.047303
v -0.03339 -0.0599 0.047302
v -0.026638 -0.0652 -0.051408
v -0.026638 -0.0652 0.051408
v -0.026638 -0.0599 -0.051408
v -0.026638 -0.0599 0.051408
v -0.01939 -0.0652 -0.054557
v -0.01939 -0.0652 0.054557
v -0.01939 -0.0599 -0.054557
v -0.01939 -0.0599 0.054557
v -0.01178 -0.0652 -0.056689
v -0.01178 -0.0652 0.056689
v -0.01178 -0.0599 -0.056689
v -0.01178 -0.0599 0.056689
v -0.003951 -0.0652 -0.057765
v -0.003951 -0.0652 0.057765
v -0.003951 -0.0599 -0.057765
v -0.003951 -0.0599 0.057765
v 0.003951 -0.0652 -0.057765
v 0.003951 -0.0652 0.057765
v 0.003951 -0.0599 -0.057765
v 0.003951 -0.0599 0.057765
v 0.01178 -0.0652 -0.056689
v 0.01178 -0.0652 0.056689
v 0.01178 -0.0599 -0.056689
v 0.01178 -0.0599 0.056689
v 0.019389 -0.0652 -0.054557
v 0.019389 -0.0652 0.054557
v 0.019389 -0.0599 -0.054557
v 0.019389 -0.0599 0.054557
v 0.026638 -0.0652 -0.051408
v 0.026638 -0.0652 0.051408
v 0.026638 -0.0599 -0.051408
v 0.026638 -0.0599 0.051408
v 0.033389 -0.0652 -0.047303
v 0.033389 -0.0652 0.047302
v 0.033389 -0.0599 -0.047303
v 0.033389 -0.0599 0.047302
v 0.039519 -0.0652 -0.042315
v 0.039519 -0.0652 0.042315
v 0.039519 -0.0599 -0.042315
v 0.039519 -0.0599 0.042315
v 0.044913 -0.0652 -0.03654
v 0.044913 -0.0652 0.03654
v 0.044913 -0.0599 -0.03654
v 0.044913 -0.0599 0.03654
v 0.049471 -0.0652 -0.030084
v 0.049471 -0.0652 0.030084
v 0.049471 -0.0599 -0.030084
v 0.049471 -0.0599 0.030084
v 0.053106 -0.0652 -0.023067
v 0.053106 -0.0652 0.023067
v 0.053106 -0.0599 -0.023067
v 0.053106 -0.0599 0.023067
v 0.055753 -0.0652 -0.015621
v 0.055753 -0.0652 0.015621
v 0.055753 -0.0599 -0.015621
v 0.055753 -0.0599 0.015621
v 0.05736 -0.0652 -0.007884
v 0.05736 -0.0652 0.007884
v 0.05736 -0.0599 -0.007884
v 0.05736 -0.0599 0.007884
v 0.0579 -0.0652 0.0
v 0.0579 -0.0599 0.0
vn -0.9997 0.0 -0.0228
vn -0.9997 0.0 0.0228
vn -0.9935 0.0 -0.1135
vn -0.9935 0.0 0.1135
vn -0.9873 0.0 -0.1587
vn -0.9873 0.0 0.1587
vn -0.9688 0.0 -0.2478
vn -0.9688 0.0 0.2478
vn -0.9565 0.0 -0.2917
vn -0.9565 0.0 0.2917
vn -0.926 0.0 -0.3774
vn -0.926 0.0 0.3774
vn -0.9079 0.0 -0.4192
vn -0.9079 0.0 0.4192
vn -0.8661 0.0 -0.4999
vn -0.8661 0.0 0.4999
vn -0.8424 0.0 -0.5389
vn -0.8424 0.0 0.5389
vn -0.7899 0.0 -0.6132
vn -0.7899 0.0 0.6132
vn -0.7611 0.0 -0.6486
vn -0.7611 0.0 0.6486
vn -0.699 0.0 -0.7151
vn -0.699 0.0 0.7151
vn -0.6657 0.0 -0.7462
vn -0.6657 0.0 0.7462
vn -0.5952 0.0 -0.8036
vn -0.5951 0.0 0.8036
vn -0.5579 0.0 -0.8299
vn -0.5579 0.0 0.8299
vn -0.4802 0.0 0.8772
vn -0.4801 0.0 -0.8772
vn -0.4398 0.0 0.8981
vn -0.4397 0.0 -0.8981
vn -0.3563 0.0 -0.9344
vn -0.3563 0.0 0.9344
vn -0.3133 0.0 -0.9496
vn -0.3133 0.0 0.9496
vn -0.2257 0.0 -0.9742
vn -0.2257 0.0 0.9742
vn -0.1811 0.0 -0.9835
vn -0.1811 0.0 0.9835
vn -0.091 0.0 -0.9959
vn -0.091 0.0 0.9959
vn -0.0455 0.0 -0.999
vn -0.0455 0.0 0.999
vn 0.0 -1.0 0.0
vn 0.0455 0.0 -0.999
vn 0.0455 0.0 0.999
vn 0.091 0.0 -0.9959
vn 0.091 0.0 0.9959
vn 0.1811 0.0 -0.9835
vn 0.1811 0.0 0.9835
vn 0.2257 0.0 -0.9742
vn 0.2257 0.0 0.9742
vn 0.3133 0.0 -0.9496
vn 0.3133 0.0 0.9496
vn 0.3563 0.0 -0.9344
vn 0.3563 0.0 0.9344
vn 0.4397 0.0 -0.8981
vn 0.4397 0.0 0.8981
vn 0.4802 0.0 -0.8772
vn 0.4802 0.0 0.8771
vn 0.5579 0.0 -0.8299
vn 0.5579 0.0 0.8299
vn 0.5952 0.0 -0.8036
vn 0.5952 0.0 0.8036
vn 0.6657 0.0 -0.7462
vn 0.6657 0.0 0.7462
vn 0.699 0.0 -0.7151
vn 0.699 0.0 0.7151
vn 0.7611 0.0 -0.6487
vn 0.7611 0.0 0.6487
vn 0.7898 0.0 -0.6133
vn 0.7898 0.0 0.6133
vn 0.8423 0.0 -0.5389
vn 0.8423 0.0 0.5389
vn 0.8661 0.0 -0.4999
vn 0.8661 0.0 0.4999
vn 0.9079 0.0 -0.4192
vn 0.9079 0.0 0.4192
vn 0.926 0.0 -0.3774
vn 0.926 0.0 0.3774
vn 0.9565 0.0 -0.2917
vn 0.9565 0.0 0.2917
vn 0.9688 0.0 -0.2477
vn 0.9688 0.0 0.2477
vn 0.9873 0.0 -0.1587
vn 0.9873 0.0 0.1587
vn 0.9935 0.0 -0.1136
vn 0.9935 0.0 0.1136
vn 0.9997 0.0 -0.0228
vn 0.9997 0.0 0.0228
f 11//47 15//47 55//47
f 36//47 32//47 55//47
f 55//47 32//47 28//47
f 55//47 28//47 24//47
f 52//47 48//47 63//47
f 63//47 48//47 44//47
f 52//47 63//47 56//47
f 56//47 63//47 67//47
f 56//47 67//47 71//47
f 55//47 59//47 36//47
f 36//47 59//47 63//47
f 36//47 63//47 40//47
f 40//47 63//47 44//47
f 15//47 19//47 55//47
f 55//47 19//47 23//47
f 55//47 23//47 27//47
f 27//47 31//47 55//47
f 55//47 31//47 35//47
f 55//47 35//47 39//47
f 39//47 43//47 55//47
f 55//47 43//47 47//47
f 55//47 47//47 51//47
f 24//47 20//47 55//47
f 55//47 20//47 16//47
f 55//47 16//47 12//47
f 12//47 8//47 55//47
f 55//47 8//47 4//47
f 55//47 4//47 1//47
f 1//47 3//47 55//47
f 55//47 3//47 7//47
f 55//47 7//47 11//47
f 71//47 75//47 56//47
f 56//47 75//47 79//47
f 56//47 79//47 83//47
f 83//47 87//47 56//47
f 56//47 87//47 91//47
f 56//47 91//47 88//47
f 88//47 84//47 80//47
f 80//47 76//47 88//47
f 88//47 76//47 72//47
f 88//47 72//47 68//47
f 68//47 64//47 88//47
f 88//47 64//47 60//47
f 88//47 60//47 56//47
f 87//90 92//92 91//93
f 91//93 92//92 90//91
f 91//93 90//91 88//89
f 88//89 90//91 86//87
f 88//89 86//87 84//85
f 84//85 86//87 82//83
f 84//85 82//83 80//81
f 80//81 82//83 78//79
f 80//81 78//79 76//77
f 76//77 78//79 74//75
f 76//77 74//75 72//73
f 72//73 74//75 70//71
f 72//73 70//71 68//69
f 68//69 70//71 66//67
f 68//69 66//67 64//65
f 64//65 66//67 62//63
f 64//65 62//63 60//61
f 60//61 62//63 58//59
f 60//61 58//59 56//57
f 56//57 58//59 54//55
f 56//57 54//55 52//53
f 52//53 54//55 50//51
f 52//53 50//51 48//49
f 48//49 50//51 46//46
f 48//49 46//46 44//44
f 44//44 46//46 42//42
f 44//44 42//42 40//40
f 40//40 42//42 38//38
f 40//40 38//38 36//36
f 36//36 38//38 34//33
f 36//36 34//33 32//31
f 32//31 34//33 30//30
f 32//31 30//30 28//28
f 28//28 30//30 26//26
f 28//28 26//26 24//24
f 24//24 26//26 22//22
f 24//24 22//22 20//20
f 20//20 22//22 18//18
f 20//20 18//18 16//16
f 16//16 18//18 14//14
f 16//16 14//14 12//12
f 12//12 14//14 10//10
f 12//12 10//10 8//8
f 8//8 10//10 6//6
f 8//8 6//6 4//4
f 4//4 6//6 2//2
f 4//4 2//2 1//1
f 1//1 2//2 5//3
f 1//1 5//3 3//5
f 3//5 5//3 9//7
f 3//5 9//7 7//9
f 7//9 9//7 13//11
f 7//9 13//11 11//13
f 11//13 13//11 17//15
f 11//13 17//15 15//17
f 15//17 17//15 21//19
f 15//17 21//19 19//21
f 19//21 21//19 25//23
f 19//21 25//23 23//25
f 23//25 25//23 29//27
f 23//25 29//27 27//29
f 27//29 29//27 33//32
f 27//29 33//32 31//34
f 31//34 33//32 37//35
f 31//34 37//35 35//37
f 35//37 37//35 41//39
f 35//37 41//39 39//41
f 39//41 41//39 45//43
f 39//41 45//43 43//45
f 43//45 45//43 49//48
f 43//45 49//48 47//50
f 47//50 49//48 53//52
f 47//50 53//52 51//54
f 51//54 53//52 57//56
f 51//54 57//56 55//58
f 55//58 57//56 61//60
f 55//58 61//60 59//62
f 59//62 61//60 65//64
f 59//62 65//64 63//66
f 63//66 65//64 69//68
f 63//66 69//68 67//70
f 67//70 69//68 73//72
f 67//70 73//72 71//74
f 71//74 73//72 77//76
f 71//74 77//76 75//78
f 75//78 77//76 81//80
f 75//78 81//80 79//82
f 79//82 81//80 85//84
f 79//82 85//84 83//86
f 83//86 85//84 89//88
f 83//86 89//88 87//90
f 87//90 89//88 92//92
