o wrist2_0
v -0.0375 0.0 0.04915
v -0.0375 0.04225 0.09465
v -0.0374 0.04225 0.09465
v -0.0374 0.0475 0.09465
v -0.03731 -0.003768 0.04915
v -0.037256 0.004269 0.04915
v -0.037151 0.04225 0.089544
v -0.037151 0.04225 0.099756
v -0.037051 0.04225 0.089557
v -0.037051 0.04225 0.099742
v -0.037051 0.0475 0.089557
v -0.037051 0.0475 0.099742
v -0.036641 -0.007972 0.04915
v -0.036524 0.008493 0.04915
v -0.036109 0.04225 0.084533
v -0.036109 0.04225 0.104767
v -0.036013 0.04225 0.08456
v -0.036013 0.04225 0.10474
v -0.036013 0.0475 0.08456
v -0.036013 0.0475 0.10474
v -0.035485 -0.012116 0.04915
v -0.035323 0.012579 0.04915
v -0.034395 0.04225 0.07971
v -0.034395 0.04225 0.10959
v -0.034304 0.04225 0.07975
v -0.034304 0.04225 0.10955
v -0.034304 0.0475 0.07975
v -0.034304 0.0475 0.10955
v -0.033883 -0.016054 0.04915
v -0.033661 0.016512 0.04915
v -0.032041 0.04225 0.075166
v -0.032041 0.04225 0.114134
v -0.031955 0.04225 0.075218
v -0.031955 0.04225 0.114082
v -0.031955 0.0475 0.075218
v -0.031955 0.0475 0.114082
v -0.031842 -0.019787 0.04915
v -0.031554 0.020243 0.04915
v -0.029364 -0.0233 0.04915
v -0.029089 0.04225 0.070984
v -0.029089 0.04225 0.118316
v -0.029049 0.023692 0.04915
v -0.029011 0.04225 0.071047
v -0.029011 0.04225 0.118253
v -0.029011 0.0475 0.071047
v -0.029011 0.0475 0.118253
v -0.026531 -0.026473 0.04915
v -0.026524 0.02648 0.04915
v -0.025596 0.04225 0.067244
v -0.025596 0.04225 0.122056
v -0.025527 0.04225 0.067317
v -0.025527 0.04225 0.121983
v -0.025527 0.0475 0.067317
v -0.025527 0.0475 0.121983
v -0.023659 -0.02906 0.04915
v -0.023318 0.029334 0.04915
v -0.021625 0.04225 0.064014
v -0.021625 0.04225 0.125286
v -0.021568 0.04225 0.064095
v -0.021568 0.04225 0.125205
v -0.021568 0.0475 0.064095
v -0.021568 0.0475 0.125205
v -0.02016 -0.031581 0.04915
v -0.019822 0.031794 0.04915
v -0.017252 0.04225 0.061354
v -0.017252 0.04225 0.127946
v -0.017206 0.04225 0.061443
v -0.017206 0.04225 0.127857
v -0.017206 0.0475 0.061443
v -0.017206 0.0475 0.127857
v -0.016429 -0.033668 0.04915
v -0.016064 0.033843 0.04915
v -0.012558 0.04225 0.059315
v -0.012558 0.04225 0.129984
v -0.012524 0.04225 0.059409
v -0.012524 0.04225 0.12989
v -0.012524 0.0475 0.059409
v -0.012524 0.0475 0.12989
v -0.012468 -0.035326 0.04915
v -0.012085 0.035459 0.04915
v -0.008313 -0.036534 0.04915
v -0.007951 0.036615 0.04915
v -0.00763 0.04225 0.057935
v -0.00763 0.04225 0.131365
v -0.007609 0.04225 0.058033
v -0.007609 0.04225 0.131267
v -0.007609 0.0475 0.058033
v -0.007609 0.0475 0.131267
v -0.004202 -0.037246 0.04915
v -0.00369 0.0373 0.04915
v -0.002559 0.04225 0.057237
v -0.002559 0.04225 0.132062
v -0.002552 0.04225 0.057337
v -0.002552 0.04225 0.131962
v -0.002552 0.0475 0.057337
v -0.002552 0.0475 0.131962
v -5e-05 -0.037491 0.04915
v 1.5e-05 0.037491 0.04915
v 0.002552 0.04225 0.057337
v 0.002552 0.04225 0.131962
v 0.002552 0.0475 0.057337
v 0.002552 0.0475 0.131962
v 0.002559 0.04225 0.057237
v 0.002559 0.04225 0.132062
v 0.00367 -0.037303 0.04915
v 0.004192 0.037246 0.04915
v 0.007609 0.04225 0.058033
v 0.007609 0.04225 0.131267
v 0.007609 0.0475 0.058033
v 0.007609 0.0475 0.131267
v 0.007629 0.04225 0.057935
v 0.007629 0.04225 0.131365
v 0.007913 -0.036623 0.04915
v 0.008318 0.036532 0.04915
v 0.012038 -0.035475 0.04915
v 0.012449 0.035333 0.04915
v 0.012524 0.04225 0.059409
v 0.012524 0.04225 0.129891
v 0.012524 0.0475 0.059409
v 0.012524 0.0475 0.129891
v 0.012558 0.04225 0.059315
v 0.012558 0.04225 0.129984
v 0.016036 -0.033857 0.04915
v 0.01643 0.033668 0.04915
v 0.017206 0.04225 0.061443
v 0.017206 0.04225 0.127857
v 0.017206 0.0475 0.061443
v 0.017206 0.0475 0.127857
v 0.017252 0.04225 0.061354
v 0.017252 0.04225 0.127946
v 0.019775 -0.031823 0.04915
v 0.020169 0.031576 0.04915
v 0.021568 0.04225 0.064095
v 0.021568 0.04225 0.125205
v 0.021568 0.0475 0.064095
v 0.021568 0.0475 0.125205
v 0.021625 0.04225 0.064014
v 0.021625 0.04225 0.125286
v 0.023261 -0.029379 0.04915
v 0.023653 0.029065 0.04915
v 0.025527 0.04225 0.067317
v 0.025527 0.04225 0.121983
v 0.025527 0.0475 0.067317
v 0.025527 0.0475 0.121983
v 0.025596 0.04225 0.067244
v 0.025596 0.04225 0.122056
v 0.026484 -0.02652 0.04915
v 0.026531 0.026473 0.04915
v 0.029011 0.04225 0.071047
v 0.029011 0.04225 0.118253
v 0.029011 0.0475 0.071047
v 0.029011 0.0475 0.118253
v 0.029073 -0.023662 0.04915
v 0.029089 0.04225 0.070984
v 0.029089 0.04225 0.118316
v 0.029369 0.023294 0.04915
v 0.031569 -0.02022 0.04915
v 0.031837 0.019796 0.04915
v 0.031955 0.04225 0.075218
v 0.031955 0.04225 0.114082
v 0.031955 0.0475 0.075218
v 0.031955 0.0475 0.114082
v 0.03204 0.04225 0.075166
v 0.03204 0.04225 0.114134
v 0.033682 -0.01647 0.04915
v 0.033889 0.016041 0.04915
v 0.034304 0.04225 0.07975
v 0.034304 0.04225 0.10955
v 0.034304 0.0475 0.07975
v 0.034304 0.0475 0.10955
v 0.034395 0.04225 0.07971
v 0.034395 0.04225 0.10959
v 0.035333 -0.012555 0.04915
v 0.035493 0.012093 0.04915
v 0.036013 0.04225 0.08456
v 0.036013 0.04225 0.10474
v 0.036013 0.0475 0.08456
v 0.036013 0.0475 0.10474
v 0.036109 0.04225 0.084533
v 0.036109 0.04225 0.104767
v 0.036525 -0.008489 0.04915
v 0.036641 0.007975 0.04915
v 0.037051 0.04225 0.089558
v 0.037051 0.04225 0.099743
v 0.037051 0.0475 0.089558
v 0.037051 0.0475 0.099743
v 0.037151 0.04225 0.089544
v 0.037151 0.04225 0.099756
v 0.037256 -0.004269 0.04915
v 0.037312 0.003746 0.04915
v 0.0374 0.04225 0.09465
v 0.0374 0.0475 0.09465
v 0.0375 0.0 0.04915
v 0.0375 0.04225 0.09465
vn -0.9997 0.0 -0.0228
vn -0.9997 0.0 0.0228
vn -0.9935 0.0 -0.1136
vn -0.9935 0.0 0.1136
vn -0.9873 0.0 -0.1587
vn -0.9873 0.0 0.1587
vn -0.9688 0.0 -0.2477
vn -0.9688 0.0 0.2477
vn -0.9565 0.0 -0.2916
vn -0.9565 0.0 0.2916
vn -0.9261 0.0 -0.3774
vn -0.9261 0.0 0.3774
vn -0.9079 0.0 -0.4193
vn -0.9079 0.0 0.4193
vn -0.866 0.0 -0.5
vn -0.866 0.0 0.5
vn -0.8423 0.0 -0.5389
vn -0.8423 0.0 0.5389
vn -0.7899 0.0 -0.6132
vn -0.7899 0.0 0.6132
vn -0.7611 0.0 -0.6486
vn -0.7611 0.0 0.6486
vn -0.699 0.0 -0.7151
vn -0.699 0.0 0.7151
vn -0.6658 0.0 -0.7461
vn -0.6658 0.0 0.7461
vn -0.5952 0.0 -0.8036
vn -0.5952 0.0 0.8036
vn -0.5579 0.0 -0.8299
vn -0.5579 0.0 0.8299
vn -0.4801 0.0 -0.8772
vn -0.4801 0.0 0.8772
vn -0.4397 0.0 -0.8981
vn -0.4396 0.0 0.8982
vn -0.3562 0.0 -0.9344
vn -0.3562 0.0 0.9344
vn -0.3133 0.0 0.9497
vn -0.3132 0.0 -0.9497
vn -0.2257 0.0 0.9742
vn -0.2256 0.0 -0.9742
vn -0.1811 0.0 -0.9835
vn -0.1811 0.0 0.9835
vn -0.0911 0.0 -0.9958
vn -0.091 0.0 0.9959
vn -0.0455 0.0 -0.999
vn -0.0455 0.0 0.999
vn 0.0 0.0 -1.0
vn 0.0 1.0 0.0
vn 0.0455 0.0 -0.999
vn 0.0455 0.0 0.999
vn 0.091 0.0 0.9959
vn 0.0911 0.0 -0.9958
vn 0.181 0.0 0.9835
vn 0.1811 0.0 -0.9835
vn 0.2256 0.0 -0.9742
vn 0.2256 0.0 0.9742
vn 0.3132 0.0 -0.9497
vn 0.3132 0.0 0.9497
vn 0.3562 0.0 -0.9344
vn 0.3562 0.0 0.9344
vn 0.4397 0.0 -0.8981
vn 0.4397 0.0 0.8981
vn 0.4801 0.0 -0.8772
vn 0.4801 0.0 0.8772
vn 0.5579 0.0 -0.8299
vn 0.5579 0.0 0.8299
vn 0.5952 0.0 -0.8036
vn 0.5952 0.0 0.8036
vn 0.6658 0.0 -0.7461
vn 0.6658 0.0 0.7461
vn 0.699 0.0 -0.7151
vn 0.699 0.0 0.7151
vn 0.7611 0.0 -0.6486
vn 0.7611 0.0 0.6486
vn 0.7899 0.0 -0.6132
vn 0.7899 0.0 0.6132
vn 0.8423 0.0 -0.5389
vn 0.8423 0.0 0.5389
vn 0.866 0.0 -0.5
vn 0.866 0.0 0.5
vn 0.9079 0.0 -0.4193
vn 0.9079 0.0 0.4193
vn 0.9261 0.0 -0.3774
vn 0.9261 0.0 0.3774
vn 0.9565 0.0 -0.2916
vn 0.9565 0.0 0.2916
vn 0.9688 0.0 -0.2477
vn 0.9688 0.0 0.2477
vn 0.9873 0.0 -0.1587
vn 0.9873 0.0 0.1587
vn 0.9935 0.0 -0.1136
vn 0.9935 0.0 0.1136
vn 0.9997 0.0 -0.0228
vn 0.9997 0.0 0.0228
f 169//48 20//48 177//48
f 177//48 20//48 28//48
f 177//48 28//48 36//48
f 162//48 170//48 102//48
f 119//48 109//48 20//48
f 20//48 109//48 101//48
f 20//48 101//48 95//48
f 36//48 46//48 177//48
f 177//48 46//48 54//48
f 177//48 54//48 62//48
f 169//48 161//48 20//48
f 20//48 161//48 151//48
f 20//48 151//48 143//48
f 62//48 70//48 177//48
f 177//48 70//48 78//48
f 177//48 78//48 88//48
f 170//48 178//48 102//48
f 102//48 178//48 186//48
f 102//48 186//48 192//48
f 143//48 135//48 20//48
f 20//48 135//48 127//48
f 20//48 127//48 119//48
f 95//48 87//48 20//48
f 20//48 87//48 77//48
f 20//48 77//48 69//48
f 162//48 102//48 152//48
f 152//48 102//48 110//48
f 152//48 110//48 120//48
f 88//48 96//48 177//48
f 177//48 96//48 102//48
f 177//48 102//48 185//48
f 185//48 102//48 192//48
f 128//48 136//48 120//48
f 120//48 136//48 144//48
f 120//48 144//48 152//48
f 69//48 61//48 20//48
f 20//48 61//48 53//48
f 20//48 53//48 45//48
f 45//48 35//48 20//48
f 20//48 35//48 27//48
f 20//48 27//48 19//48
f 19//48 11//48 20//48
f 20//48 11//48 4//48
f 20//48 4//48 12//48
f 11//3 3//1 4//2
f 4//2 3//1 10//4
f 4//2 10//4 12//6
f 12//6 10//4 18//8
f 12//6 18//8 20//10
f 20//10 18//8 26//12
f 20//10 26//12 28//14
f 28//14 26//12 34//16
f 28//14 34//16 36//18
f 36//18 34//16 44//20
f 36//18 44//20 46//22
f 46//22 44//20 52//24
f 46//22 52//24 54//26
f 54//26 52//24 60//28
f 54//26 60//28 62//30
f 62//30 60//28 68//32
f 62//30 68//32 70//34
f 70//34 68//32 76//36
f 70//34 76//36 78//37
f 78//37 76//36 86//39
f 78//37 86//39 88//42
f 88//42 86//39 94//44
f 88//42 94//44 96//46
f 96//46 94//44 100//50
f 96//46 100//50 102//51
f 102//51 100//50 108//53
f 102//51 108//53 110//56
f 110//56 108//53 118//58
f 110//56 118//58 120//60
f 120//60 118//58 126//62
f 120//60 126//62 128//64
f 128//64 126//62 134//66
f 128//64 134//66 136//68
f 136//68 134//66 142//70
f 136//68 142//70 144//72
f 144//72 142//70 150//74
f 144//72 150//74 152//76
f 152//76 150//74 160//78
f 152//76 160//78 162//80
f 162//80 160//78 168//82
f 162//80 168//82 170//84
f 170//84 168//82 176//86
f 170//84 176//86 178//88
f 178//88 176//86 184//90
f 178//88 184//90 186//92
f 186//92 184//90 191//94
f 186//92 191//94 192//93
f 192//93 191//94 183//91
f 192//93 183//91 185//89
f 185//89 183//91 175//87
f 185//89 175//87 177//85
f 177//85 175//87 167//83
f 177//85 167//83 169//81
f 169//81 167//83 159//79
f 169//81 159//79 161//77
f 161//77 159//79 149//75
f 161//77 149//75 151//73
f 151//73 149//75 141//71
f 151//73 141//71 143//69
f 143//69 141//71 133//67
f 143//69 133//67 135//65
f 135//65 133//67 125//63
f 135//65 125//63 127//61
f 127//61 125//63 117//59
f 127//61 117//59 119//57
f 119//57 117//59 107//55
f 119//57 107//55 109//54
f 109//54 107//55 99//52
f 109//54 99//52 101//49
f 101//49 99//52 93//45
f 101//49 93//45 95//43
f 95//43 93//45 85//41
f 95//43 85//41 87//40
f 87//40 85//41 75//38
f 87//40 75//38 77//35
f 77//35 75//38 67//33
f 77//35 67//33 69//31
f 69//31 67//33 59//29
f 69//31 59//29 61//27
f 61//27 59//29 51//25
f 61//27 51//25 53//23
f 53//23 51//25 43//21
f 53//23 43//21 45//19
f 45//19 43//21 33//17
f 45//19 33//17 35//15
f 35//15 33//17 25//13
f 35//15 25//13 27//11
f 27//11 25//13 17//9
f 27//11 17//9 19//7
f 19//7 17//9 9//5
f 19//7 9//5 11//3
f 11//3 9//5 3//1
f 113//47 105//47 5//47
f 190//47 42//47 48//47
f 181//47 173//47 5//47
f 1//47 6//47 190//47
f 190//47 6//47 14//47
f 190//47 14//47 22//47
f 22//47 30//47 190//47
f 190//47 30//47 38//47
f 190//47 38//47 42//47
f 72//47 80//47 190//47
f 181//47 5//47 189//47
f 1//47 190//47 5//47
f 5//47 190//47 193//47
f 5//47 193//47 189//47
f 173//47 165//47 5//47
f 5//47 165//47 157//47
f 5//47 157//47 153//47
f 89//47 81//47 55//47
f 47//47 39//47 105//47
f 105//47 39//47 37//47
f 105//47 37//47 29//47
f 29//47 21//47 105//47
f 105//47 21//47 13//47
f 105//47 13//47 5//47
f 80//47 82//47 190//47
f 190//47 82//47 90//47
f 190//47 90//47 182//47
f 182//47 90//47 174//47
f 47//47 105//47 55//47
f 55//47 105//47 97//47
f 55//47 97//47 89//47
f 48//47 56//47 190//47
f 190//47 56//47 64//47
f 190//47 64//47 72//47
f 106//47 114//47 140//47
f 90//47 148//47 156//47
f 153//47 147//47 5//47
f 5//47 147//47 139//47
f 5//47 139//47 131//47
f 131//47 123//47 5//47
f 5//47 123//47 115//47
f 5//47 115//47 113//47
f 81//47 79//47 55//47
f 55//47 79//47 71//47
f 55//47 71//47 63//47
f 148//47 90//47 140//47
f 140//47 90//47 98//47
f 140//47 98//47 106//47
f 156//47 158//47 90//47
f 90//47 158//47 166//47
f 90//47 166//47 174//47
f 114//47 116//47 140//47
f 140//47 116//47 124//47
f 140//47 124//47 132//47
f 75//48 73//48 67//48
f 67//48 73//48 65//48
f 67//48 65//48 59//48
f 59//48 65//48 57//48
f 59//48 57//48 51//48
f 51//48 57//48 49//48
f 51//48 49//48 43//48
f 43//48 49//48 40//48
f 43//48 40//48 33//48
f 33//48 40//48 31//48
f 33//48 31//48 25//48
f 25//48 31//48 23//48
f 25//48 23//48 17//48
f 17//48 23//48 15//48
f 17//48 15//48 9//48
f 9//48 15//48 7//48
f 9//48 7//48 3//48
f 3//48 7//48 2//48
f 3//48 2//48 10//48
f 10//48 2//48 8//48
f 10//48 8//48 18//48
f 18//48 8//48 16//48
f 18//48 16//48 26//48
f 26//48 16//48 24//48
f 26//48 24//48 34//48
f 34//48 24//48 32//48
f 34//48 32//48 44//48
f 44//48 32//48 41//48
f 44//48 41//48 52//48
f 52//48 41//48 50//48
f 52//48 50//48 60//48
f 60//48 50//48 58//48
f 60//48 58//48 68//48
f 68//48 58//48 66//48
f 68//48 66//48 76//48
f 76//48 66//48 74//48
f 76//48 74//48 86//48
f 86//48 74//48 84//48
f 86//48 84//48 94//48
f 94//48 84//48 92//48
f 94//48 92//48 100//48
f 100//48 92//48 104//48
f 100//48 104//48 108//48
f 108//48 104//48 112//48
f 108//48 112//48 118//48
f 118//48 112//48 122//48
f 118//48 122//48 126//48
f 126//48 122//48 130//48
f 126//48 130//48 134//48
f 134//48 130//48 138//48
f 134//48 138//48 142//48
f 142//48 138//48 146//48
f 142//48 146//48 150//48
f 150//48 146//48 155//48
f 150//48 155//48 160//48
f 160//48 155//48 164//48
f 160//48 164//48 168//48
f 168//48 164//48 172//48
f 168//48 172//48 176//48
f 176//48 172//48 180//48
f 176//48 180//48 184//48
f 184//48 180//48 188//48
f 184//48 188//48 191//48
f 191//48 188//48 194//48
f 191//48 194//48 183//48
f 183//48 194//48 187//48
f 183//48 187//48 175//48
f 175//48 187//48 179//48
f 175//48 179//48 167//48
f 167//48 179//48 171//48
f 167//48 171//48 159//48
f 159//48 171//48 163//48
f 159//48 163//48 149//48
f 149//48 163//48 154//48
f 149//48 154//48 141//48
f 141//48 154//48 145//48
f 141//48 145//48 133//48
f 133//48 145//48 137//48
f 133//48 137//48 125//48
f 125//48 137//48 129//48
f 125//48 129//48 117//48
f 117//48 129//48 121//48
f 117//48 121//48 107//48
f 107//48 121//48 111//48
f 107//48 111//48 99//48
f 99//48 111//48 103//48
f 99//48 103//48 93//48
f 93//48 103//48 91//48
f 93//48 91//48 85//48
f 85//48 91//48 83//48
f 85//48 83//48 75//48
f 75//48 83//48 73//48
